Coordinates
version=1
nRows=16
nColumns=40
inDegrees=yes

Units are S.I. units (second, meters, Newtons, ...)
If the header above contains a line with 'inDegrees', this indicates whether rotational values are in degrees (yes) or radians (no).

endheader
time	pelvis_tilt	pelvis_list	pelvis_rotation	pelvis_tx	pelvis_ty	pelvis_tz	hip_flexion_r	hip_adduction_r	hip_rotation_r	knee_angle_r	knee_angle_r_beta	ankle_angle_r	subtalar_angle_r	mtp_angle_r	hip_flexion_l	hip_adduction_l	hip_rotation_l	knee_angle_l	knee_angle_l_beta	ankle_angle_l	subtalar_angle_l	mtp_angle_l	lumbar_extension	lumbar_bending	lumbar_rotation	arm_flex_r	arm_add_r	arm_rot_r	elbow_flex_r	pro_sup_r	wrist_flex_r	wrist_dev_r	arm_flex_l	arm_add_l	arm_rot_l	elbow_flex_l	pro_sup_l	wrist_flex_l	wrist_dev_l
      1.04000000	      3.97697254	     11.06349166	    -87.39013252	      0.23290068	      0.88912440	     -0.03708975	     39.69658447	     -1.36698490	     -0.48316272	      3.45565820	      0.06031261	      5.75045128	      0.00000000	      0.00000000	    -10.60078072	      8.27238605	     17.51605453	     -2.79548496	     -0.04879042	      8.94030861	      0.00000000	      0.00000000	      4.36220033	     -6.19489481	     -1.63205338	      0.00000000	      0.00000000	      0.00000000	      0.00000000	      0.00000000	      0.00000000	      0.00000000	      0.00000000	      0.00000000	      0.00000000	      0.00000000	      0.00000000	      0.00000000	      0.00000000
      1.05000000	      3.84520940	     11.27161433	    -87.24516623	      0.23254846	      0.88767777	     -0.02617840	     39.44891787	     -1.15458054	      0.02366024	      3.57881184	      0.06246205	      5.36261714	      0.00000000	      0.00000000	    -10.99591601	      8.01976477	     17.72057917	     -2.59326062	     -0.04526094	      8.78343501	      0.00000000	      0.00000000	      4.74720835	     -6.09833761	     -1.56005680	      0.00000000	      0.00000000	      0.00000000	      0.00000000	      0.00000000	      0.00000000	      0.00000000	      0.00000000	      0.00000000	      0.00000000	      0.00000000	      0.00000000	      0.00000000	      0.00000000
      1.06000000	      3.68705870	     11.45367738	    -87.08078675	      0.23222562	      0.88642285	     -0.01512060	     39.11521313	     -0.93296165	      0.41851200	      3.72818632	      0.06506913	      4.68638132	      0.00000000	      0.00000000	    -11.32561496	      7.75848211	     17.70704242	     -2.22493892	     -0.03883251	      8.46803664	      0.00000000	      0.00000000	      5.11302189	     -5.96676927	     -1.55473813	      0.00000000	      0.00000000	      0.00000000	      0.00000000	      0.00000000	      0.00000000	      0.00000000	      0.00000000	      0.00000000	      0.00000000	      0.00000000	      0.00000000	      0.00000000	      0.00000000
      1.07000000	      3.46705409	     11.64575665	    -86.90648647	      0.23184823	      0.88529615	     -0.00387002	     38.76305783	     -0.65791039	      0.72559148	      3.92230438	      0.06845713	      3.75875697	     -0.00000000	      0.00000000	    -11.57872888	      7.44214475	     17.57495442	     -1.74199096	     -0.03040348	      8.08439353	     -0.00000000	      0.00000000	      5.50551591	     -5.78124631	     -1.54439743	      0.00000000	     -0.00000000	      0.00000000	      0.00000000	      0.00000000	     -0.00000000	     -0.00000000	     -0.00000000	      0.00000000	      0.00000000	      0.00000000	      0.00000000	     -0.00000000	      0.00000000
      1.08000000	      3.18889169	     11.88621385	    -86.75367528	      0.23142630	      0.88428741	      0.00751869	     38.45556028	     -0.31900278	      0.93472668	      4.14986757	      0.07242885	      2.59610415	      0.00000000	      0.00000000	    -11.71800602	      7.08180738	     17.33340947	     -1.17056054	     -0.02043014	      7.64667163	      0.00000000	      0.00000000	      5.97795377	     -5.53066959	     -1.50920123	      0.00000000	      0.00000000	      0.00000000	      0.00000000	      0.00000000	      0.00000000	      0.00000000	      0.00000000	      0.00000000	      0.00000000	      0.00000000	      0.00000000	      0.00000000	      0.00000000
      1.09000000	      2.86435080	     12.11575224	    -86.60770204	      0.23097456	      0.88350050	      0.01902119	     38.13463997	      0.06157788	      1.02403040	      4.39185647	      0.07665236	      1.23379609	      0.00000000	     -0.00000000	    -11.77880398	      6.68908990	     17.00437655	     -0.45847816	     -0.00800195	      7.10093772	     -0.00000000	      0.00000000	      6.44703826	     -5.21899647	     -1.46641125	     -0.00000000	      0.00000000	     -0.00000000	      0.00000000	      0.00000000	     -0.00000000	     -0.00000000	      0.00000000	      0.00000000	      0.00000000	      0.00000000	      0.00000000	     -0.00000000	     -0.00000000
      1.10000000	      2.49470362	     12.33331559	    -86.47610103	      0.23049998	      0.88296787	      0.03063407	     37.77046948	      0.47968902	      0.97580969	      4.55326787	      0.07946952	     -0.44847369	     -0.00000000	     -0.00000000	    -11.77001316	      6.26073668	     16.49199652	      0.36035457	      0.00628937	      6.40882716	     -0.00000000	     -0.00000000	      6.89824355	     -4.85811806	     -1.41743125	      0.00000000	      0.00000000	      0.00000000	      0.00000000	      0.00000000	     -0.00000000	      0.00000000	     -0.00000000	     -0.00000000	      0.00000000	      0.00000000	      0.00000000	      0.00000000	     -0.00000000
      1.11000000	      2.06399749	     12.52158181	    -86.37277556	      0.22984598	      0.88271519	      0.04233916	     37.41693766	      0.98040411	      0.83358066	      4.76930589	      0.08324009	     -2.18483046	      0.00000000	      0.00000000	    -11.67397299	      5.77466586	     15.88855206	      1.36260939	      0.02378202	      5.58893755	      0.00000000	      0.00000000	      7.33130946	     -4.44974539	     -1.36254113	      0.00000000	      0.00000000	      0.00000000	      0.00000000	      0.00000000	      0.00000000	      0.00000000	      0.00000000	      0.00000000	      0.00000000	      0.00000000	      0.00000000	      0.00000000	      0.00000000
      1.12000000	      1.58955967	     12.73229866	    -86.28102904	      0.22919180	      0.88269192	      0.05407411	     37.13692467	      1.50614881	      0.54514582	      5.05383650	      0.08820609	     -3.77900948	      0.00000000	      0.00000000	    -11.46256626	      5.25062173	     15.24939399	      2.47139387	      0.04313396	      4.65795515	      0.00000000	      0.00000000	      7.79333441	     -3.97565783	     -1.26564275	      0.00000000	      0.00000000	      0.00000000	      0.00000000	      0.00000000	      0.00000000	      0.00000000	      0.00000000	      0.00000000	      0.00000000	      0.00000000	      0.00000000	      0.00000000	      0.00000000
      1.13000000	      1.11676073	     12.89537045	    -86.23654108	      0.22848294	      0.88298051	      0.06584301	     36.81092779	      2.04358428	      0.22708765	      5.33283311	      0.09307550	     -5.43198600	      0.00000000	      0.00000000	    -11.15298015	      4.73898511	     14.36901888	      3.80013098	      0.06632480	      3.52541223	      0.00000000	      0.00000000	      8.18142731	     -3.49357915	     -1.21000510	      0.00000000	      0.00000000	      0.00000000	      0.00000000	      0.00000000	      0.00000000	      0.00000000	      0.00000000	      0.00000000	      0.00000000	      0.00000000	      0.00000000	      0.00000000	      0.00000000
      1.14000000	      0.61405435	     13.05201036	    -86.19962514	      0.22774054	      0.88354313	      0.07760279	     36.53136652	      2.59871362	     -0.19319772	      5.70629532	      0.09959364	     -6.76050826	      0.00000000	      0.00000000	    -10.73984130	      4.18803642	     13.50081419	      5.26516227	      0.09189442	      2.23498013	      0.00000000	      0.00000000	      8.56289268	     -2.97848015	     -1.11593102	      0.00000000	      0.00000000	      0.00000000	      0.00000000	      0.00000000	      0.00000000	      0.00000000	      0.00000000	      0.00000000	      0.00000000	      0.00000000	      0.00000000	      0.00000000	      0.00000000
      1.15000000	      0.13094062	     13.17094119	    -86.19407823	      0.22692888	      0.88438967	      0.08933806	     36.23652535	      3.14025250	     -0.61690822	      6.13462145	      0.10706934	     -7.81610821	      0.00000000	      0.00000000	    -10.23044342	      3.64504238	     12.56686251	      6.92131790	      0.12079979	      0.76826933	      0.00000000	      0.00000000	      8.88627484	     -2.47403481	     -1.03220284	      0.00000000	      0.00000000	      0.00000000	      0.00000000	      0.00000000	      0.00000000	      0.00000000	      0.00000000	      0.00000000	      0.00000000	      0.00000000	      0.00000000	      0.00000000	      0.00000000
      1.16000000	     -0.34015590	     13.26656084	    -86.20872097	      0.22607349	      0.88549020	      0.10102047	     35.93611421	      3.67779369	     -0.99207169	      6.62518637	      0.11563132	     -8.58137872	      0.00000000	      0.00000000	     -9.60460419	      3.09209660	     11.56039761	      8.76394881	      0.15295976	     -0.87086252	      0.00000000	      0.00000000	      9.16685961	     -1.98514098	     -0.95508921	      0.00000000	      0.00000000	      0.00000000	      0.00000000	      0.00000000	      0.00000000	      0.00000000	      0.00000000	      0.00000000	      0.00000000	      0.00000000	      0.00000000	      0.00000000	      0.00000000
      1.17000000	     -0.79215611	     13.36134897	    -86.25597250	      0.22515205	      0.88678524	      0.11261010	     35.64623593	      4.21284897	     -1.29834346	      7.15947245	      0.12495637	     -9.05626227	      0.00000000	      0.00000000	     -8.83815398	      2.53166706	     10.48450881	     10.79091196	      0.18833694	     -2.69102081	      0.00000000	      0.00000000	      9.43289094	     -1.51295516	     -0.88215744	      0.00000000	      0.00000000	      0.00000000	      0.00000000	      0.00000000	      0.00000000	      0.00000000	      0.00000000	      0.00000000	      0.00000000	      0.00000000	      0.00000000	      0.00000000	      0.00000000
      1.18000000	     -1.18435412	     13.46816534	    -86.32258873	      0.22421878	      0.88823285	      0.12406495	     35.36058981	      4.69920088	     -1.51416857	      7.70894936	      0.13454655	     -9.22037931	      0.00000000	      0.00000000	     -7.90627693	      2.00576546	      9.43043116	     13.02862373	      0.22739238	     -4.63520818	      0.00000000	      0.00000000	      9.69404001	     -1.10861362	     -0.75403915	      0.00000000	      0.00000000	      0.00000000	      0.00000000	      0.00000000	      0.00000000	      0.00000000	      0.00000000	      0.00000000	      0.00000000	      0.00000000	      0.00000000	      0.00000000	      0.00000000
      1.19000000	     -1.56110587	     13.45987218	    -86.34754876	      0.22333961	      0.88998154	      0.13547970	     34.92623229	      5.15321310	     -1.76888773	      8.24899554	      0.14397213	     -9.07658892	      0.00000000	      0.00000000	     -6.99096036	      1.44729632	      8.48701785	     15.38158935	      0.26845938	     -6.79421753	      0.00000000	      0.00000000	      9.80785130	     -0.72633774	     -0.75232069	      0.00000000	      0.00000000	      0.00000000	      0.00000000	      0.00000000	      0.00000000	      0.00000000	      0.00000000	      0.00000000	      0.00000000	      0.00000000	      0.00000000	      0.00000000	      0.00000000
